<?xml version="1.0" encoding="utf-8"?>
<!-- Generator: Adobe Illustrator 19.2.1, SVG Export Plug-In . SVG Version: 6.00 Build 0)  -->
<svg version="1.1" id="layer" xmlns="http://www.w3.org/2000/svg" xmlns:xlink="http://www.w3.org/1999/xlink" x="0px" y="0px"
	 viewBox="0 0 652 652" style="enable-background:new 0 0 652 652;" xml:space="preserve">
<style type="text/css">
	.st0{fill:#D53026;}
	.st1{fill:#FFFFFF;}
</style>
<path class="st0" d="M21.5,199.3h600v243.3h-600V199.3z"/>
<path class="st1" d="M554.9,254.6c-120.8,9.8-255.4,40.1-369.5,81h148.8C334.6,335.7,392.8,281.8,554.9,254.6z M565.1,254.6
	c-146.5,28.1-197.6,81-197.6,81h147C477.7,310.3,513.1,277.8,565.1,254.6L565.1,254.6z M188.8,348.2h-5.8
	c-5.2-0.2-10.4,0.8-15.2,2.8l-90.9,35.8H105l24.3-9.9h35.9c-1.3,3.4-2.8,6.6-4.5,9.8h19.4l13.8-31.6c2.2-4.9-0.9-7-4.9-7
	L188.8,348.2L188.8,348.2z M172.2,367.1h-18l22.1-9L172.2,367.1z M518.4,348.2h-5.8c-5.2-0.2-10.4,0.8-15.2,2.8l-90.9,35.9h28.2
	l24.2-9.8h35.9c-1.3,3.4-2.8,6.6-4.5,9.8h19.4l13.8-31.6c2.2-4.9-0.9-7-4.9-7h-0.2V348.2z M501.8,367.1h-17.9l22-9L501.8,367.1z
	 M208,378.1l37.2-30.4h-19.4l-34.4,28.4c-2.8,2-5.8,10.7,9.4,10.7h52l10.3-8.6L208,378.1L208,378.1z M413.6,369.8
	c6.9-1.7,13.4-4.5,19.4-8.3c10.8-7.4,4.5-13.8-4.5-13.8h-160c-3.6,2.8-7.2,5.8-10.3,8.6h39.4l-26.4,21.8l-10.8,8.6H281l37.2-30h30
	l-37.1,30h22l18.4-14.8h38.1c5.8,0,4,3.7,2.2,5.3c-4,3.3-8.1,6.6-11.6,9.8h22.8c3.6-2.8,7.2-5.8,10.3-8.6
	C415.4,375.8,416.3,372.4,413.6,369.8L413.6,369.8z M363,361.2l7.6-6.2h39.9c6.7,0,3.1,6.2-5.8,6.2H363z"/>
</svg>
