<?xml version="1.0" encoding="UTF-8" standalone="no"?>
<svg
   xmlns:dc="http://purl.org/dc/elements/1.1/"
   xmlns:cc="http://creativecommons.org/ns#"
   xmlns:rdf="http://www.w3.org/1999/02/22-rdf-syntax-ns#"
   xmlns:svg="http://www.w3.org/2000/svg"
   xmlns="http://www.w3.org/2000/svg"
   version="1.1"
   id="svg3424"
   viewBox="0 0 300 165.50339"
   height="165.50339"
   width="300">
  <defs
     id="defs3426">
    <clipPath
       id="clipPath3350"
       clipPathUnits="userSpaceOnUse">
      <path
         id="path3352"
         d="m 0,841.89 595.276,0 L 595.276,0 0,0 0,841.89 Z" />
    </clipPath>
  </defs>
  <metadata
     id="metadata3429">
    <rdf:RDF>
      <cc:Work
         rdf:about="">
        <dc:format>image/svg+xml</dc:format>
        <dc:type
           rdf:resource="http://purl.org/dc/dcmitype/StillImage" />
        <dc:title></dc:title>
      </cc:Work>
    </rdf:RDF>
  </metadata>
  <g
     transform="translate(-148.40002,-446.44274)"
     id="layer1">
    <g
       id="g3346"
       transform="matrix(1.0073792,0,0,-1.0073792,-9.5773087,951.25202)">
      <g
         clip-path="url(#clipPath3350)"
         id="g3348">
        <g
           transform="translate(445.7788,340.0586)"
           id="g3354">
          <path
             id="path3356"
             style="fill:#001489;fill-opacity:1;fill-rule:nonzero;stroke:none"
             d="m 0,0 1.181,0 0,2.661 1.354,-0.018 C 2.889,2.643 3.481,2.187 3.53,1.579 3.563,1.151 3.496,0.021 3.707,0.021 l 1.211,0 C 4.709,0.094 4.605,1.13 4.531,1.886 4.44,2.881 3.732,3.149 3.563,3.223 3.789,3.241 4.82,3.755 4.82,4.7 4.82,5.712 3.961,6.596 2.848,6.596 l 0,-0.007 L 0,6.589 0,0 Z m 1.181,5.583 1.391,0 c 0.579,0 1.04,-0.554 1.04,-0.979 0,-0.421 -0.365,-0.989 -1.04,-0.989 l 0,-0.002 -1.391,0.007 0,1.963 z" />
        </g>
        <g
           transform="translate(442.6479,343.3389)"
           id="g3358">
          <path
             id="path3360"
             style="fill:#001489;fill-opacity:1;fill-rule:nonzero;stroke:none"
             d="m 0,0 c 0,-3.029 2.459,-5.489 5.489,-5.489 3.034,0 5.493,2.46 5.493,5.489 0,3.033 -2.459,5.491 -5.493,5.491 C 2.459,5.491 0,3.033 0,0 m 10.433,0 c 0,-2.727 -2.209,-4.941 -4.944,-4.941 -2.725,0 -4.941,2.214 -4.941,4.941 0,2.732 2.216,4.941 4.941,4.941 2.735,0 4.944,-2.209 4.944,-4.941" />
        </g>
        <g
           transform="translate(316.6001,364.1611)"
           id="g3362">
          <path
             id="path3364"
             style="fill:#001489;fill-opacity:1;fill-rule:nonzero;stroke:none"
             d="m 0,0 c 1.125,1.321 1.781,3.103 1.781,4.961 l 0,6.845 -35.013,0 0,-7.617 19.333,0 -16.94,-18.738 c -1.116,-1.328 -1.874,-2.947 -1.874,-4.836 l 0,-6.963 34.987,0 0,7.61 -19.204,0 L 0,0 Z" />
        </g>
        <g
           transform="translate(404.5337,375.9668)"
           id="g3366">
          <path
             id="path3368"
             style="fill:#001489;fill-opacity:1;fill-rule:nonzero;stroke:none"
             d="m 0,0 c -4.229,0 -7.704,-3.416 -7.704,-7.638 l 0,-22.874 c 0,-4.213 3.475,-7.641 7.704,-7.641 l 27.249,0 c 4.219,0 7.593,3.428 7.593,7.641 l 0,22.874 C 34.842,-3.416 31.468,0 27.249,0 L 0,0 Z m 16.471,-7.616 c 2.115,0 3.806,-1.708 3.806,-3.822 l 0,-15.28 c 0,-2.105 -1.701,-3.826 -3.811,-3.826 l -5.756,0 c -2.11,0 -3.831,1.721 -3.831,3.826 l 0,15.28 c 0,2.114 1.721,3.822 3.831,3.822 l 5.761,0 z" />
        </g>
        <g
           transform="translate(264.269,375.9668)"
           id="g3370">
          <path
             id="path3372"
             style="fill:#001489;fill-opacity:1;fill-rule:nonzero;stroke:none"
             d="m 0,0 14.588,0 0,-30.521 c 0,-4.214 -3.378,-7.632 -7.596,-7.632 L 0,-38.153 0,0 Z" />
        </g>
        <g
           transform="translate(331.1069,337.8135)"
           id="g3374">
          <path
             id="path3376"
             style="fill:#001489;fill-opacity:1;fill-rule:nonzero;stroke:none"
             d="m 0,0 c -4.216,0 -7.677,3.429 -7.677,7.642 l 0,30.511 14.581,0 0,-26.702 c 0,-2.114 1.754,-3.842 3.855,-3.842 l 4.682,0 c 2.116,0 3.77,1.721 3.77,3.827 l 0,26.717 33.893,0 c 4.213,0 7.608,-3.413 7.608,-7.632 l 0,-30.521 -14.583,0 0,26.732 c 0,2.113 -1.714,3.805 -3.826,3.805 l -8.505,0 0,-22.895 C 33.798,3.429 30.432,0 26.207,0 L 0,0 Z" />
        </g>
        <g
           transform="translate(242.8247,389.0898)"
           id="g3378">
          <path
             id="path3380"
             style="fill:#001489;fill-opacity:1;fill-rule:nonzero;stroke:none"
             d="m 0,0 c -5.469,0 -10.354,-2.49 -13.588,-6.398 l -37.212,-44.878 21.115,0 28.229,34.022 c 2.119,2.523 5.286,4.131 8.855,4.131 l 7.447,0 -31.506,-38.153 22.646,0 c 5.282,0 9.522,4.279 9.522,9.555 L 15.508,0 0,0 Z" />
        </g>
        <g
           transform="translate(195.0181,382.6914)"
           id="g3382">
          <path
             id="path3384"
             style="fill:#001489;fill-opacity:1;fill-rule:nonzero;stroke:none"
             d="m 0,0 -37.204,-44.878 21.1,0 28.227,34.023 c 2.121,2.522 5.3,4.13 8.847,4.13 l 7.682,0 0,13.123 -15.073,0 C 8.116,6.398 3.221,3.908 0,0" />
        </g>
        <g
           transform="translate(322.5298,389.0898)"
           id="g3386">
          <path
             id="path3388"
             style="fill:#001489;fill-opacity:1;fill-rule:evenodd;stroke:none"
             d="m 0,0 c -3.504,11.245 -8.675,36.434 13.568,52.048 15.894,11.15 64.13,24.327 89.973,33.797 l 18.577,25.184 C 104.397,101.934 81.405,92.618 60.435,86.192 13.692,71.869 -14.266,63.372 -50.28,62.666 -76.203,62.156 -76.559,74.389 -51.335,96.327 -79.656,85.335 -119.26,72.31 -164.717,62.136 c 40.551,-1.14 71.339,-9.384 89.84,-20.13 C -48.526,26.701 -42.139,10.628 -39.164,0 L 0,0 Z m -48.812,46.55 c 12.641,-0.451 22.343,0.542 39.98,4.396 -8.32,-6.203 -15.661,-17.499 -16.488,-26.135 -4.382,6.558 -14.53,16.746 -23.492,21.739" />
        </g>
      </g>
    </g>
  </g>
</svg>
