<?xml version="1.0" encoding="UTF-8" standalone="no"?>
<svg
   xmlns:dc="http://purl.org/dc/elements/1.1/"
   xmlns:cc="http://creativecommons.org/ns#"
   xmlns:rdf="http://www.w3.org/1999/02/22-rdf-syntax-ns#"
   xmlns:svg="http://www.w3.org/2000/svg"
   xmlns="http://www.w3.org/2000/svg"
   height="64.400002"
   width="339.13971"
   version="1.1"
   viewBox="0 0 339.13971 64.4"
   id="speedo-logo">
  <metadata
     id="metadata11">
    <rdf:RDF>
      <cc:Work
         rdf:about="">
        <dc:format>image/svg+xml</dc:format>
        <dc:type
           rdf:resource="http://purl.org/dc/dcmitype/StillImage" />
      </cc:Work>
    </rdf:RDF>
  </metadata>
  <defs
     id="defs9" />
  <style
     id="style2">.speedo-logo{fill:#ee3224}</style>
  <path
     style="fill:#ee3224"
     id="path4"
     class="speedo-logo"
     d="m 230.2,52.5 c -1.5,0.5 -2,-0.1 -2.2,-0.6 -0.2,-0.6 0.1,-1.4 1,-1.8 0,0 49.6,-24.8 50.3,-25.2 0.7,-0.4 0.9,-0.5 1.2,-0.8 0.2,-0.2 0.4,-0.5 0.4,-0.9 0,-0.6 -0.3,-1 -1,-1.2 0,0 -29.4,-6.7 -29.7,-6.8 -0.7,-0.2 -1.2,-0.4 -1.1,-1.1 0,-0.3 0.2,-0.6 0.9,-0.7 h 85.7 c 1.8,0 3.2,0.3 3.4,1.7 0.3,1.5 -1.1,2.3 -4.2,3.4 z m -2.4,-29.6 -3.2,18.7 c -0.5,3.1 -1.9,5.6 -4.7,7.5 -2.6,1.7 -4.6,1.9 -7.8,1.9 h -12.3 c -2.9,0 -5.1,0 -7.4,-1.9 -1.7,-1.5 -2.4,-3.2 -2.4,-5.3 0,-0.8 0.1,-1.4 0.2,-2.6 L 193.5,23 c 1.2,-3.7 1.8,-5.9 4.7,-7.7 2.8,-1.8 4.6,-2 8,-2 h 12.4 c 2.7,0 5,0 7.1,1.9 1.7,1.6 2.3,3.3 2.3,5.5 0,0.7 -0.1,1.4 -0.2,2.2 m -8.4,-2.1 c -1.2,-1.1 -2.3,-1.1 -4,-1.1 h -8.7 c -3.7,0 -5.9,1.6 -6.5,5 l -2.6,15.1 c -0.1,0.5 -0.1,0.8 -0.1,1.3 0,1 0.3,1.8 1.2,2.5 1.2,1 2.2,1 3.7,1 h 9.2 c 1.7,0 2.5,0 3.9,-1 1.5,-1 2.1,-2 2.3,-3.7 l 2.6,-15.2 c 0.1,-0.5 0.1,-0.8 0.1,-1.3 0,-1 -0.3,-1.9 -1.1,-2.6 M 32.3,19.7 H 16.6 c -1.7,0 -2.6,-0.1 -4,0.8 -2.1,1.1 -2.6,3.2 -2.6,5.3 0,2.8 2.6,3 5.1,3 h 9.3 c 5,0 7.8,3 7.8,7.5 0,2 -0.6,4 -0.9,5.9 -0.4,2.4 -1.8,4.7 -3.8,6.3 -2.5,2.2 -4.4,2.6 -7.8,2.6 H 0 L 1.2,44.6 H 19 c 4.4,0 5.7,-2.7 5.7,-6.3 0,-2.4 -1.6,-3 -4,-3 H 12 c -4.9,0 -9.3,-2.2 -9.3,-7.1 0,-2.1 0.6,-4.3 1,-6.4 0.5,-2.7 2.4,-5.3 4.9,-6.9 2.2,-1.4 4.5,-1.6 7.2,-1.6 h 17.7 z m 40.6,3.4 c -1.1,6.2 -2.2,12.3 -3.2,18.5 -1,5.5 -5.9,9.4 -12.1,9.4 H 40.8 l -2.4,13.4 h -7 l 7.1,-41.1 c 1.1,-6.3 5,-10 12.2,-10 h 12.7 c 5.4,0 9.8,1.8 9.8,7.3 0,0.8 -0.1,1.7 -0.3,2.5 M 52,19.7 c -3.8,0 -6.1,1.7 -6.7,5.1 L 42.2,43 c -0.2,1.1 0.6,1.6 1.6,1.6 h 13.1 c 3.4,0 5.5,-1.8 6.1,-4.8 l 2.7,-15 c 0.1,-0.5 0.1,-0.8 0.1,-1.3 0,-1 -0.3,-1.9 -1.1,-2.6 -1.2,-1.1 -2.3,-1.1 -4,-1.1 z m 99.2,21.6 c 1.1,-6.2 2.2,-12.3 3.2,-18.5 1,-5.5 5.9,-9.4 12.1,-9.4 h 16.8 L 185.7,0 h 7 l -7.1,41.1 c -1.1,6.3 -5,10 -12.2,10 h -12.7 c -5.4,0 -9.8,-1.8 -9.8,-7.3 0.1,-0.8 0.2,-1.7 0.3,-2.5 m 20.9,3.4 c 3.8,0 6.1,-1.7 6.7,-5.1 l 3.1,-18.1 c 0.2,-1.1 -0.6,-1.6 -1.6,-1.6 h -13.1 c -3.4,0 -5.5,1.8 -6.1,4.8 l -2.7,15 c -0.1,0.5 -0.1,0.8 -0.1,1.3 0,1 0.3,1.9 1.1,2.6 1.2,1.1 2.3,1.1 4,1.1 z m -24.9,-9.4 c 0.5,-2.6 2.3,-12.4 2.3,-15 0,-5.1 -3.9,-6.9 -8.9,-6.9 h -12.2 c -7,0 -11.5,3 -12.6,9.6 l -3.1,17.8 c -0.2,1 -0.2,2 -0.2,3 0,2.1 0.6,3.7 2.3,5.1 2.4,2 4.8,2.1 7.9,2.1 h 21.8 l 1.1,-6.5 h -20.5 c -1.6,0 -2.8,0.2 -4,-0.9 -1,-0.8 -1.1,-1.4 -1.1,-2.6 0,-0.9 0.7,-4.8 0.8,-5.8 h 26.4 z M 122.4,24.5 c 0.6,-3.7 3.5,-4.8 7.2,-4.8 h 7.6 c 2.3,0 4.9,0.7 4.9,3.2 0,0.4 -0.4,3.3 -0.7,5.2 -0.2,1.4 -0.7,1.5 -1.8,1.5 h -17.9 z m -13.5,10.8 c 0.5,-2.6 2.3,-12.4 2.3,-15 0,-5.1 -3.9,-6.9 -8.9,-6.9 H 90.1 c -7,0 -11.5,3 -12.6,9.6 l -3.1,17.8 c -0.2,1 -0.2,2 -0.2,3 0,2.1 0.6,3.7 2.3,5.1 2.4,2 4.8,2.1 7.9,2.1 h 21.8 l 1.1,-6.5 H 86.8 c -1.6,0 -2.8,0.2 -4,-0.9 -1,-0.8 -1.1,-1.4 -1.1,-2.6 0,-0.9 0.7,-4.8 0.8,-5.8 h 26.4 z M 84.1,24.5 c 0.6,-3.7 3.5,-4.8 7.2,-4.8 h 7.6 c 2.3,0 4.9,0.7 4.9,3.2 0,0.4 -0.4,3.3 -0.7,5.2 -0.2,1.4 -0.7,1.5 -1.8,1.5 H 83.4 Z m 148.9,-13 -0.4,-0.7 c -0.2,-0.3 -0.4,-0.7 -0.6,-0.9 -0.2,-0.2 -0.3,-0.2 -0.7,-0.2 h -0.2 v 1.8 h -0.9 V 7.1 h 2.2 c 0.9,0 1.4,0.5 1.4,1.2 0,0.7 -0.5,1.1 -1.2,1.2 0.4,0.1 0.5,0.2 0.9,1 l 0.5,0.9 h -1 z M 232.1,9 c 0.6,0 0.8,-0.3 0.8,-0.6 0,-0.4 -0.3,-0.6 -0.9,-0.6 h -0.8 V 9 Z m -3.3,0.3 c 0,1.8 1.5,3.3 3.3,3.3 1.8,0 3.3,-1.5 3.3,-3.3 0,-1.8 -1.5,-3.3 -3.4,-3.3 -1.7,-0.1 -3.2,1.4 -3.2,3.3 m 7.5,0 c 0,2.3 -1.8,4.1 -4.2,4.2 -2.3,0 -4.2,-1.9 -4.1,-4.1 0,-2.3 1.9,-4.1 4.2,-4.1 2.3,-0.2 4.1,1.7 4.1,4" />
</svg>
